<svg xmlns="http://www.w3.org/2000/svg" viewBox="0 0 64 64">
  <defs>
    <linearGradient id="g" x1="0" x2="1">
      <stop offset="0%" stop-color="#1F6FEB"/>
      <stop offset="100%" stop-color="#117A65"/>
    </linearGradient>
  </defs>
  <circle cx="32" cy="32" r="30" fill="url(#g)" opacity="0.15"/>
  <path d="M20 42c8 4 16 4 24 0 0 0-2-4-2-8 0-4 3-6 3-10 0-6-6-10-13-10s-13 4-13 10c0 4 3 6 3 10 0 4-2 8-2 8z" fill="url(#g)"/>
  <path d="M26 30c2 2 10 2 12 0" stroke="#0B132B" stroke-width="2" stroke-linecap="round"/>
  <circle cx="26" cy="26" r="1.5" fill="#0B132B"/>
  <circle cx="38" cy="26" r="1.5" fill="#0B132B"/>
</svg>